<svg width="13" height="13" viewBox="0 0 13 13" fill="none" xmlns="http://www.w3.org/2000/svg">
<path d="M7.52632 1.02632C7.52632 0.75412 7.41819 0.493073 7.22572 0.300601C7.03324 0.108129 6.7722 0 6.5 0C6.2278 0 5.96676 0.108129 5.77429 0.300601C5.58181 0.493073 5.47368 0.75412 5.47368 1.02632V5.47368H1.02632C0.75412 5.47368 0.493073 5.58181 0.300601 5.77429C0.108129 5.96676 0 6.2278 0 6.5C0 6.7722 0.108129 7.03324 0.300601 7.22572C0.493073 7.41819 0.75412 7.52632 1.02632 7.52632H5.47368V11.9737C5.47368 12.2459 5.58181 12.5069 5.77429 12.6994C5.96676 12.8919 6.2278 13 6.5 13C6.7722 13 7.03324 12.8919 7.22572 12.6994C7.41819 12.5069 7.52632 12.2459 7.52632 11.9737V7.52632H11.9737C12.2459 7.52632 12.5069 7.41819 12.6994 7.22572C12.8919 7.03324 13 6.7722 13 6.5C13 6.2278 12.8919 5.96676 12.6994 5.77429C12.5069 5.58181 12.2459 5.47368 11.9737 5.47368H7.52632V1.02632Z" fill="white"/>
</svg>
