<svg width="9" height="8" viewBox="0 0 9 8" fill="none" xmlns="http://www.w3.org/2000/svg">
<path d="M0.0509815 0.663864C0.0131159 0.739992 -0.00420954 0.825465 0.000864958 0.911111C0.0059385 0.996757 0.0332203 1.07934 0.0797824 1.15L4.13 7.26784C4.17141 7.33036 4.2267 7.38145 4.29112 7.41673C4.35555 7.45201 4.42719 7.47044 4.49991 7.47044C4.57264 7.47044 4.64428 7.45201 4.70871 7.41673C4.77313 7.38145 4.82842 7.33036 4.86983 7.26784L8.92005 1.15C8.96676 1.0794 8.99412 0.996774 8.99915 0.911079C9.00419 0.825384 8.98671 0.739883 8.94861 0.663832C8.91051 0.58778 8.85324 0.524078 8.783 0.479622C8.71276 0.435166 8.63223 0.41165 8.55013 0.411621L0.449702 0.411621C0.367557 0.411607 0.286973 0.435105 0.216688 0.47957C0.146403 0.524035 0.089097 0.587769 0.0509815 0.663864Z" fill="white"/>
</svg>
